<svg width="50" height="50" viewBox="0 0 50 50" fill="none" xmlns="http://www.w3.org/2000/svg">
<ellipse cx="25.0001" cy="25.0006" rx="7.89416" ry="7.89416" fill="#FFD500"/>
<rect x="34.4718" y="24.1978" width="5.52591" height="1.57883" rx="0.789416" transform="rotate(-0.080562 34.4718 24.1978)" fill="#FFD500"/>
<rect x="10" y="24.2322" width="5.52591" height="1.57883" rx="0.789416" transform="rotate(-0.080562 10 24.2322)" fill="#FFD500"/>
<rect x="25.8098" y="34.4718" width="5.52591" height="1.57883" rx="0.789416" transform="rotate(89.8775 25.8098 34.4718)" fill="#FFD500"/>
<rect x="25.7574" y="10" width="5.52591" height="1.57883" rx="0.789416" transform="rotate(89.8775 25.7574 10)" fill="#FFD500"/>
<rect x="17.5638" y="19.0437" width="5.52591" height="1.57883" rx="0.789416" transform="rotate(-135 17.5638 19.0437)" fill="#FFD500"/>
<rect x="35.2227" y="36.0129" width="5.52591" height="1.57883" rx="0.789416" transform="rotate(-135 35.2227 36.0129)" fill="#FFD500"/>
<rect x="18.9719" y="32.1053" width="5.52591" height="1.57883" rx="0.789416" transform="rotate(135 18.9719 32.1053)" fill="#FFD500"/>
<rect x="36.3392" y="15.0651" width="5.52591" height="1.57883" rx="0.789416" transform="rotate(135 36.3392 15.0651)" fill="#FFD500"/>
</svg>
